<svg width="22" height="21" viewBox="0 0 22 21" fill="none" xmlns="http://www.w3.org/2000/svg">
<path d="M1.34112 15.5297L6.0554 11.0297C6.20264 10.889 6.28535 10.6984 6.28535 10.4995C6.28535 10.3007 6.20264 10.11 6.0554 9.96937L1.34112 5.46937C0.84808 4.99969 0 5.33344 0 6V15C0 15.6708 0.851027 15.9984 1.34112 15.5297ZM21.2143 18H0.785714C0.57733 18 0.37748 18.079 0.23013 18.2197C0.0827804 18.3603 0 18.5511 0 18.75L0 20.25C0 20.4489 0.0827804 20.6397 0.23013 20.7803C0.37748 20.921 0.57733 21 0.785714 21H21.2143C21.4227 21 21.6225 20.921 21.7699 20.7803C21.9172 20.6397 22 20.4489 22 20.25V18.75C22 18.5511 21.9172 18.3603 21.7699 18.2197C21.6225 18.079 21.4227 18 21.2143 18ZM21.37 12H10.0586C9.97586 11.9999 9.8939 12.0155 9.81743 12.0457C9.74096 12.0759 9.67148 12.1202 9.61296 12.176C9.55444 12.2319 9.50804 12.2982 9.4764 12.3712C9.44476 12.4442 9.42851 12.5224 9.42857 12.6014V14.3986C9.42851 14.4776 9.44476 14.5558 9.4764 14.6288C9.50804 14.7018 9.55444 14.7681 9.61296 14.824C9.67148 14.8798 9.74096 14.9241 9.81743 14.9543C9.8939 14.9845 9.97586 15.0001 10.0586 15H21.37C21.4527 15.0001 21.5347 14.9845 21.6111 14.9543C21.6876 14.9241 21.7571 14.8798 21.8156 14.824C21.8741 14.7681 21.9205 14.7018 21.9522 14.6288C21.9838 14.5558 22.0001 14.4776 22 14.3986V12.6014C22.0001 12.5224 21.9838 12.4442 21.9522 12.3712C21.9205 12.2982 21.8741 12.2319 21.8156 12.176C21.7571 12.1202 21.6876 12.0759 21.6111 12.0457C21.5347 12.0155 21.4527 11.9999 21.37 12ZM21.37 6H10.0586C9.97586 5.99994 9.8939 6.01545 9.81743 6.04565C9.74096 6.07586 9.67148 6.12015 9.61296 6.17601C9.55444 6.23187 9.50804 6.29819 9.4764 6.37118C9.44476 6.44418 9.42851 6.52241 9.42857 6.60141V8.39859C9.42851 8.47759 9.44476 8.55582 9.4764 8.62881C9.50804 8.70181 9.55444 8.76813 9.61296 8.82399C9.67148 8.87985 9.74096 8.92414 9.81743 8.95435C9.8939 8.98455 9.97586 9.00006 10.0586 9H21.37C21.4527 9.00006 21.5347 8.98455 21.6111 8.95435C21.6876 8.92414 21.7571 8.87985 21.8156 8.82399C21.8741 8.76813 21.9205 8.70181 21.9522 8.62881C21.9838 8.55582 22.0001 8.47759 22 8.39859V6.60141C22.0001 6.52241 21.9838 6.44418 21.9522 6.37118C21.9205 6.29819 21.8741 6.23187 21.8156 6.17601C21.7571 6.12015 21.6876 6.07586 21.6111 6.04565C21.5347 6.01545 21.4527 5.99994 21.37 6ZM21.2143 0H0.785714C0.57733 0 0.37748 0.0790176 0.23013 0.21967C0.0827804 0.360322 0 0.551088 0 0.75L0 2.25C0 2.44891 0.0827804 2.63968 0.23013 2.78033C0.37748 2.92098 0.57733 3 0.785714 3H21.2143C21.4227 3 21.6225 2.92098 21.7699 2.78033C21.9172 2.63968 22 2.44891 22 2.25V0.75C22 0.551088 21.9172 0.360322 21.7699 0.21967C21.6225 0.0790176 21.4227 0 21.2143 0Z" fill="black"/>
</svg>
