<svg width="19" height="16" viewBox="0 0 19 16" fill="none" xmlns="http://www.w3.org/2000/svg">
<path d="M1.15824 11.8321L5.22966 8.40357C5.35683 8.29642 5.42826 8.15113 5.42826 7.99964C5.42826 7.84816 5.35683 7.70287 5.22966 7.59571L1.15824 4.16714C0.732433 3.80929 0 4.06357 0 4.57143V11.4286C0 11.9396 0.734978 12.1893 1.15824 11.8321ZM18.3214 13.7143H0.678571C0.498603 13.7143 0.326006 13.7745 0.198749 13.8817C0.0714922 13.9888 0 14.1342 0 14.2857L0 15.4286C0 15.5801 0.0714922 15.7255 0.198749 15.8326C0.326006 15.9398 0.498603 16 0.678571 16H18.3214C18.5014 16 18.674 15.9398 18.8013 15.8326C18.9285 15.7255 19 15.5801 19 15.4286V14.2857C19 14.1342 18.9285 13.9888 18.8013 13.8817C18.674 13.7745 18.5014 13.7143 18.3214 13.7143ZM18.4559 9.14286H8.68699C8.61551 9.14281 8.54473 9.15463 8.47869 9.17764C8.41265 9.20065 8.35264 9.2344 8.3021 9.27696C8.25157 9.31952 8.21149 9.37005 8.18416 9.42567C8.15684 9.48128 8.1428 9.54088 8.14286 9.60107V10.9704C8.1428 11.0305 8.15684 11.0901 8.18416 11.1458C8.21149 11.2014 8.25157 11.2519 8.3021 11.2945C8.35264 11.337 8.41265 11.3708 8.47869 11.3938C8.54473 11.4168 8.61551 11.4286 8.68699 11.4286H18.4559C18.5273 11.4286 18.5981 11.4168 18.6642 11.3938C18.7302 11.3708 18.7902 11.337 18.8408 11.2945C18.8913 11.2519 18.9314 11.2014 18.9587 11.1458C18.986 11.0901 19.0001 11.0305 19 10.9704V9.60107C19.0001 9.54088 18.986 9.48128 18.9587 9.42567C18.9314 9.37005 18.8913 9.31952 18.8408 9.27696C18.7902 9.2344 18.7302 9.20065 18.6642 9.17764C18.5981 9.15463 18.5273 9.14281 18.4559 9.14286ZM18.4559 4.57143H8.68699C8.61551 4.57138 8.54473 4.5832 8.47869 4.60621C8.41265 4.62922 8.35264 4.66297 8.3021 4.70553C8.25157 4.74809 8.21149 4.79862 8.18416 4.85424C8.15684 4.90985 8.1428 4.96946 8.14286 5.02964V6.39893C8.1428 6.45912 8.15684 6.51872 8.18416 6.57434C8.21149 6.62995 8.25157 6.68048 8.3021 6.72304C8.35264 6.7656 8.41265 6.79935 8.47869 6.82236C8.54473 6.84537 8.61551 6.85719 8.68699 6.85714H18.4559C18.5273 6.85719 18.5981 6.84537 18.6642 6.82236C18.7302 6.79935 18.7902 6.7656 18.8408 6.72304C18.8913 6.68048 18.9314 6.62995 18.9587 6.57434C18.986 6.51872 19.0001 6.45912 19 6.39893V5.02964C19.0001 4.96946 18.986 4.90985 18.9587 4.85424C18.9314 4.79862 18.8913 4.74809 18.8408 4.70553C18.7902 4.66297 18.7302 4.62922 18.6642 4.60621C18.5981 4.5832 18.5273 4.57138 18.4559 4.57143ZM18.3214 0H0.678571C0.498603 0 0.326006 0.0602039 0.198749 0.167368C0.0714922 0.274531 0 0.419876 0 0.571429L0 1.71429C0 1.86584 0.0714922 2.01118 0.198749 2.11835C0.326006 2.22551 0.498603 2.28571 0.678571 2.28571H18.3214C18.5014 2.28571 18.674 2.22551 18.8013 2.11835C18.9285 2.01118 19 1.86584 19 1.71429V0.571429C19 0.419876 18.9285 0.274531 18.8013 0.167368C18.674 0.0602039 18.5014 0 18.3214 0Z" fill="black"/>
</svg>
