<svg width="22" height="24" viewBox="0 0 22 24" fill="none" xmlns="http://www.w3.org/2000/svg">
<path d="M10.6562 0C4.76953 0 0 5.20312 0 11.625C0 18.0469 4.76953 23.25 10.6562 23.25C16.543 23.25 21.3125 18.0469 21.3125 11.625C21.3125 5.20312 16.543 0 10.6562 0ZM13.1098 16.4109L9.31992 13.4062C9.18672 13.2984 9.10938 13.1297 9.10938 12.9516V5.0625C9.10938 4.75313 9.34141 4.5 9.625 4.5H11.6875C11.9711 4.5 12.2031 4.75313 12.2031 5.0625V11.5172L14.9316 13.6828C15.1637 13.8656 15.2109 14.2172 15.0434 14.4703L13.8316 16.2891C13.6641 16.5375 13.3418 16.5938 13.1098 16.4109Z" fill="black"/>
</svg>
