<svg width="174" height="39" viewBox="0 0 174 39" fill="none" xmlns="http://www.w3.org/2000/svg">
<path d="M54.2073 6.07568C53.5671 3.69515 51.6819 1.81205 49.2988 1.1725C44.9949 0 27.6728 0 27.6728 0C27.6728 0 10.3506 0.0355303 6.04675 1.20803C3.66362 1.84758 1.77846 3.73068 1.13821 6.11121C-8.48034e-08 10.4104 0 19.3995 0 19.3995C0 19.3995 -8.48034e-08 28.3887 1.17378 32.7234C1.81402 35.1039 3.69919 36.9871 6.08232 37.6266C10.3862 38.7991 27.7083 38.7991 27.7083 38.7991C27.7083 38.7991 45.0305 38.7991 49.3344 37.6266C51.7175 36.9871 53.6026 35.1039 54.2429 32.7234C55.4167 28.4242 55.4167 19.3995 55.4167 19.3995C55.4167 19.3995 55.3811 10.4104 54.2073 6.07568Z" fill="#FF0000"/>
<path d="M22.1595 27.7136L36.5295 19.3995L22.1595 11.0855V27.7136Z" fill="white"/>
<path d="M80.3862 35.2816C79.2835 34.5355 78.501 33.3985 78.0386 31.8352C77.5762 30.2718 77.3628 28.2111 77.3628 25.6174V22.0999C77.3628 19.5061 77.6118 17.3743 78.1453 15.811C78.6789 14.2121 79.497 13.0752 80.6352 12.3645C81.7734 11.6539 83.2317 11.2631 85.0457 11.2631C86.8242 11.2631 88.2825 11.6184 89.3496 12.3645C90.4167 13.1107 91.2348 14.2477 91.7327 15.811C92.2307 17.3743 92.4797 19.4706 92.4797 22.0643V25.5818C92.4797 28.1755 92.2307 30.2363 91.7327 31.7996C91.2348 33.363 90.4522 34.4999 89.3496 35.2461C88.247 35.9567 86.7531 36.3475 84.9035 36.3475C82.9827 36.383 81.4888 35.9922 80.3862 35.2816ZM86.5396 31.4799C86.8598 30.6982 87.002 29.3836 87.002 27.607V20.0391C87.002 18.2981 86.8598 17.019 86.5396 16.2373C86.2195 15.4202 85.686 15.0293 84.939 15.0293C84.1921 15.0293 83.6941 15.4202 83.374 16.2373C83.0539 17.0545 82.9116 18.2981 82.9116 20.0391V27.607C82.9116 29.3836 83.0539 30.6982 83.3384 31.4799C83.623 32.2615 84.1565 32.6524 84.939 32.6524C85.686 32.6524 86.2195 32.2615 86.5396 31.4799Z" fill="#282828"/>
<path d="M164.507 25.6884V26.932C164.507 28.4953 164.543 29.6678 164.649 30.4495C164.756 31.2311 164.934 31.7996 165.218 32.1549C165.503 32.5102 165.965 32.6879 166.57 32.6879C167.388 32.6879 167.957 32.3681 168.242 31.7286C168.562 31.089 168.704 30.0231 168.74 28.5664L173.471 28.8506C173.506 29.0638 173.506 29.348 173.506 29.7033C173.506 31.9417 172.901 33.6117 171.657 34.7131C170.412 35.8145 168.704 36.383 166.463 36.383C163.76 36.383 161.875 35.5303 160.808 33.8604C159.741 32.1905 159.172 29.5612 159.172 26.0437V21.7445C159.172 18.1205 159.741 15.4557 160.843 13.7858C161.982 12.1158 163.902 11.2631 166.606 11.2631C168.491 11.2631 169.914 11.6184 170.91 12.2935C171.905 12.9686 172.617 14.0345 173.044 15.4912C173.471 16.948 173.648 18.9377 173.648 21.4958V25.6529H164.507V25.6884ZM165.218 15.4557C164.934 15.811 164.756 16.3439 164.649 17.1256C164.543 17.9073 164.507 19.0798 164.507 20.6786V22.4196H168.491V20.6786C168.491 19.1153 168.455 17.9428 168.349 17.1256C168.242 16.3084 168.064 15.7399 167.779 15.4202C167.495 15.1004 167.068 14.9227 166.499 14.9227C165.894 14.9583 165.467 15.1359 165.218 15.4557Z" fill="#282828"/>
<path d="M67.0833 25.2265L60.8587 2.77136H66.3008L68.4705 12.933C69.0396 15.4557 69.4309 17.5875 69.7155 19.3285H69.8577C70.0356 18.0494 70.4624 15.9531 71.1027 12.9686L73.3435 2.77136H78.7856L72.4898 25.191V35.9567H67.1189V25.2265H67.0833Z" fill="#282828"/>
<path d="M110.122 11.725V35.9922H105.854L105.391 33.0077H105.285C104.111 35.2461 102.368 36.383 100.056 36.383C98.4553 36.383 97.246 35.8501 96.499 34.7842C95.7165 33.7183 95.3608 32.0839 95.3608 29.8455V11.725H100.838V29.5257C100.838 30.5916 100.945 31.3733 101.194 31.8352C101.443 32.297 101.834 32.5102 102.368 32.5102C102.83 32.5102 103.293 32.3681 103.72 32.0839C104.146 31.7996 104.466 31.4088 104.68 30.9824V11.725H110.122Z" fill="#282828"/>
<path d="M138.186 11.725V35.9922H133.918L133.455 33.0077H133.349C132.175 35.2461 130.432 36.383 128.12 36.383C126.519 36.383 125.31 35.8501 124.563 34.7842C123.78 33.7183 123.425 32.0839 123.425 29.8455V11.725H128.902V29.5257C128.902 30.5916 129.009 31.3733 129.258 31.8352C129.507 32.297 129.898 32.5102 130.432 32.5102C130.894 32.5102 131.357 32.3681 131.784 32.0839C132.21 31.7996 132.53 31.4088 132.744 30.9824V11.725H138.186Z" fill="#282828"/>
<path d="M124.99 7.17712H119.548V35.9922H114.212V7.17712H108.77V2.77136H124.954V7.17712H124.99Z" fill="#282828"/>
<path d="M156.255 15.5978C155.935 14.07 155.401 12.9686 154.654 12.258C153.908 11.5829 152.912 11.2276 151.596 11.2276C150.6 11.2276 149.639 11.5118 148.786 12.0803C147.896 12.6488 147.256 13.3949 146.758 14.3187H146.723V1.5278H141.458V35.9567H145.976L146.545 33.6472H146.651C147.078 34.4644 147.718 35.1039 148.537 35.6014C149.39 36.0633 150.315 36.312 151.347 36.312C153.196 36.312 154.548 35.4592 155.437 33.7538C156.291 32.0483 156.753 29.3836 156.753 25.795V21.9577C156.753 19.2574 156.575 17.1256 156.255 15.5978ZM151.24 25.5108C151.24 27.2873 151.169 28.673 151.026 29.6678C150.884 30.6627 150.635 31.3733 150.279 31.7996C149.924 32.226 149.461 32.4392 148.892 32.4392C148.43 32.4392 148.039 32.3326 147.647 32.1194C147.256 31.9062 146.972 31.5864 146.723 31.1601V17.3743C146.9 16.6992 147.221 16.1663 147.683 15.7399C148.145 15.3136 148.608 15.1004 149.141 15.1004C149.71 15.1004 150.137 15.3136 150.422 15.7399C150.742 16.1663 150.92 16.9124 151.062 17.9428C151.169 18.9732 151.24 20.4299 151.24 22.3486V25.5108Z" fill="#282828"/>
</svg>
