<svg width="22" height="24" viewBox="0 0 22 24" fill="none" xmlns="http://www.w3.org/2000/svg">
<path d="M11 8.625C15.5604 8.625 19.25 10.1344 19.25 12C19.25 13.8656 15.5604 15.375 11 15.375C6.43958 15.375 2.75 13.8656 2.75 12C2.75 10.1344 6.43958 8.625 11 8.625ZM2.75 3.75C2.75 5.61562 6.43958 7.125 11 7.125C15.5604 7.125 19.25 5.61562 19.25 3.75C19.25 1.88438 15.5604 0.375 11 0.375C6.43958 0.375 2.75 1.88438 2.75 3.75ZM2.75 20.25C2.75 22.1156 6.43958 23.625 11 23.625C15.5604 23.625 19.25 22.1156 19.25 20.25C19.25 18.3844 15.5604 16.875 11 16.875C6.43958 16.875 2.75 18.3844 2.75 20.25Z" fill="black"/>
</svg>
