<svg width="22" height="24" viewBox="0 0 22 24" fill="none" xmlns="http://www.w3.org/2000/svg">
<path d="M11 0.375C4.92339 0.375 0 5.57812 0 12C0 18.4219 4.92339 23.625 11 23.625C17.0766 23.625 22 18.4219 22 12C22 5.57812 17.0766 0.375 11 0.375ZM11 4.875C13.1556 4.875 14.9032 6.72188 14.9032 9C14.9032 11.2781 13.1556 13.125 11 13.125C8.84435 13.125 7.09677 11.2781 7.09677 9C7.09677 6.72188 8.84435 4.875 11 4.875ZM11 21C8.39637 21 6.06331 19.7531 4.50202 17.8031C5.33589 16.1437 6.96815 15 8.87097 15C8.97742 15 9.08387 15.0188 9.18589 15.0516C9.7625 15.2484 10.3657 15.375 11 15.375C11.6343 15.375 12.2419 15.2484 12.8141 15.0516C12.9161 15.0188 13.0226 15 13.129 15C15.0319 15 16.6641 16.1437 17.498 17.8031C15.9367 19.7531 13.6036 21 11 21Z" fill="black"/>
</svg>
