<svg width="45" height="19" viewBox="0 0 45 19" fill="none" xmlns="http://www.w3.org/2000/svg">
<path d="M16 9V16H2V9H0V16C0 17.1 0.9 18 2 18H16C17.1 18 18 17.1 18 16V9H16ZM10 9.67L12.59 7.09L14 8.5L9 13.5L4 8.5L5.41 7.09L8 9.67V0H10V9.67Z" fill="#999999"/>
<path d="M22.98 15.07C22.52 15.07 22.1067 14.99 21.74 14.83C21.38 14.6633 21.0967 14.4367 20.89 14.15C20.6833 13.8567 20.5767 13.52 20.57 13.14H21.54C21.5733 13.4667 21.7067 13.7433 21.94 13.97C22.18 14.19 22.5267 14.3 22.98 14.3C23.4133 14.3 23.7533 14.1933 24 13.98C24.2533 13.76 24.38 13.48 24.38 13.14C24.38 12.8733 24.3067 12.6567 24.16 12.49C24.0133 12.3233 23.83 12.1967 23.61 12.11C23.39 12.0233 23.0933 11.93 22.72 11.83C22.26 11.71 21.89 11.59 21.61 11.47C21.3367 11.35 21.1 11.1633 20.9 10.91C20.7067 10.65 20.61 10.3033 20.61 9.87C20.61 9.49 20.7067 9.15333 20.9 8.86C21.0933 8.56667 21.3633 8.34 21.71 8.18C22.0633 8.02 22.4667 7.94 22.92 7.94C23.5733 7.94 24.1067 8.10333 24.52 8.43C24.94 8.75667 25.1767 9.19 25.23 9.73H24.23C24.1967 9.46333 24.0567 9.23 23.81 9.03C23.5633 8.82333 23.2367 8.72 22.83 8.72C22.45 8.72 22.14 8.82 21.9 9.02C21.66 9.21333 21.54 9.48667 21.54 9.84C21.54 10.0933 21.61 10.3 21.75 10.46C21.8967 10.62 22.0733 10.7433 22.28 10.83C22.4933 10.91 22.79 11.0033 23.17 11.11C23.63 11.2367 24 11.3633 24.28 11.49C24.56 11.61 24.8 11.8 25 12.06C25.2 12.3133 25.3 12.66 25.3 13.1C25.3 13.44 25.21 13.76 25.03 14.06C24.85 14.36 24.5833 14.6033 24.23 14.79C23.8767 14.9767 23.46 15.07 22.98 15.07ZM30.7591 13.45H27.7191L27.1591 15H26.1991L28.7191 8.07H29.7691L32.2791 15H31.3191L30.7591 13.45ZM30.4991 12.71L29.2391 9.19L27.9791 12.71H30.4991ZM39.1374 8.03L36.5074 15H35.4574L32.8274 8.03H33.7974L35.9874 14.04L38.1774 8.03H39.1374ZM41.0452 8.77V11.1H43.5852V11.85H41.0452V14.25H43.8852V15H40.1352V8.02H43.8852V8.77H41.0452Z" fill="#999999"/>
</svg>
