<svg width="56" height="18" viewBox="0 0 56 18" fill="none" xmlns="http://www.w3.org/2000/svg">
<path d="M20 14C21.1 14 21.99 13.1 21.99 12L22 2C22 0.89 21.1 0 20 0H4C2.89 0 2 0.89 2 2V12C2 13.1 2.89 14 4 14H0V16H24V14H20ZM13 10.47V8.28C10.22 8.28 8.39 9.13 7 11C7.56 8.33 9.11 5.67 13 5.13V3L17 6.73L13 10.47Z" fill="black" fill-opacity="0.4"/>
<path d="M25.682 11.063C25.268 11.063 24.896 10.991 24.566 10.847C24.242 10.697 23.987 10.493 23.801 10.235C23.615 9.971 23.519 9.668 23.513 9.326H24.386C24.416 9.62 24.536 9.869 24.746 10.073C24.962 10.271 25.274 10.37 25.682 10.37C26.072 10.37 26.378 10.274 26.6 10.082C26.828 9.884 26.942 9.632 26.942 9.326C26.942 9.086 26.876 8.891 26.744 8.741C26.612 8.591 26.447 8.477 26.249 8.399C26.051 8.321 25.784 8.237 25.448 8.147C25.034 8.039 24.701 7.931 24.449 7.823C24.203 7.715 23.99 7.547 23.81 7.319C23.636 7.085 23.549 6.773 23.549 6.383C23.549 6.041 23.636 5.738 23.81 5.474C23.984 5.21 24.227 5.006 24.539 4.862C24.857 4.718 25.22 4.646 25.628 4.646C26.216 4.646 26.696 4.793 27.068 5.087C27.446 5.381 27.659 5.771 27.707 6.257H26.807C26.777 6.017 26.651 5.807 26.429 5.627C26.207 5.441 25.913 5.348 25.547 5.348C25.205 5.348 24.926 5.438 24.71 5.618C24.494 5.792 24.386 6.038 24.386 6.356C24.386 6.584 24.449 6.77 24.575 6.914C24.707 7.058 24.866 7.169 25.052 7.247C25.244 7.319 25.511 7.403 25.853 7.499C26.267 7.613 26.6 7.727 26.852 7.841C27.104 7.949 27.32 8.12 27.5 8.354C27.68 8.582 27.77 8.894 27.77 9.29C27.77 9.596 27.689 9.884 27.527 10.154C27.365 10.424 27.125 10.643 26.807 10.811C26.489 10.979 26.114 11.063 25.682 11.063ZM33.8082 4.727V11H32.9892V8.156H29.7942V11H28.9752V4.727H29.7942V7.481H32.9892V4.727H33.8082ZM38.9147 9.605H36.1787L35.6747 11H34.8107L37.0787 4.763H38.0237L40.2827 11H39.4187L38.9147 9.605ZM38.6807 8.939L37.5467 5.771L36.4127 8.939H38.6807ZM44.5741 11L43.0801 8.435H42.0901V11H41.2711V4.727H43.2961C43.7701 4.727 44.1691 4.808 44.4931 4.97C44.8231 5.132 45.0691 5.351 45.2311 5.627C45.3931 5.903 45.4741 6.218 45.4741 6.572C45.4741 7.004 45.3481 7.385 45.0961 7.715C44.8501 8.045 44.4781 8.264 43.9801 8.372L45.5551 11H44.5741ZM42.0901 7.778H43.2961C43.7401 7.778 44.0731 7.67 44.2951 7.454C44.5171 7.232 44.6281 6.938 44.6281 6.572C44.6281 6.2 44.5171 5.912 44.2951 5.708C44.0791 5.504 43.7461 5.402 43.2961 5.402H42.0901V7.778ZM47.5657 5.393V7.49H49.8517V8.165H47.5657V10.325H50.1217V11H46.7467V4.718H50.1217V5.393H47.5657Z" fill="black" fill-opacity="0.58"/>
</svg>
